<svg width="30" height="30" viewBox="0 0 30 30" fill="none" xmlns="http://www.w3.org/2000/svg">
<rect width="30" height="30" rx="15" fill="#E7E7E7"/>
<path fill-rule="evenodd" clip-rule="evenodd" d="M20.7354 9.4217C20.3449 9.03118 19.7117 9.03118 19.3212 9.4217L15 13.7429L10.6788 9.4217C10.2883 9.03118 9.6551 9.03118 9.26458 9.4217C8.87405 9.81222 8.87405 10.4454 9.26458 10.8359L13.5858 15.1571L9.42171 19.3212C9.03119 19.7117 9.03119 20.3449 9.42171 20.7354C9.81224 21.1259 10.4454 21.1259 10.8359 20.7354L15 16.5713L19.1641 20.7354C19.5546 21.1259 20.1878 21.1259 20.5783 20.7354C20.9688 20.3449 20.9688 19.7117 20.5783 19.3212L16.4142 15.1571L20.7354 10.8359C21.1259 10.4454 21.1259 9.81223 20.7354 9.4217Z" fill="#6C6C6C"/>
</svg>
