<svg width="1134" height="406" viewBox="0 0 1134 406" fill="none" xmlns="http://www.w3.org/2000/svg">
<path fill-rule="evenodd" clip-rule="evenodd" d="M358.719 89.1927C377.542 89.1927 377.604 251.5 377.604 273.547C377.604 300.292 336.974 300.12 336.974 331.375C336.974 339.005 336.958 346.354 336.948 353.51C338.344 374.437 358.432 386.995 372.828 375.318C387.224 363.635 386.182 350.922 389.047 333.891C395.354 296.344 431.797 255.375 435.526 201.802C439.719 141.677 430.802 84.6145 396.229 48.5677C351.479 1.90621 312.859 26.1927 240.542 6.81247C136.531 -21.0573 16.2396 44.1354 45.5573 201.802C57.8021 267.62 37.8229 328.531 87.3646 361.802C135.224 393.932 149.385 349.74 149.542 340.771L149.932 317.911C149.932 311.604 147.271 308.38 131.292 296.214C73.3802 252.104 102.375 87.1354 164.495 87.1354C226.609 87.1302 255.604 252.104 197.693 296.214C181.708 308.38 179.052 311.604 179.052 317.917C179.177 325.411 179.182 325.5 179.432 340.406C179.688 355.312 184.089 387.943 208.99 391.349C211.068 391.635 219.724 393.281 221.844 393.484C229.734 393.484 233.406 394.875 240.542 396.781C252.271 399.922 259.865 397.573 274.24 403.849C288.62 410.12 308.531 391.052 308.526 374.01C308.51 356.974 308.448 346.458 308.448 331.375C308.448 300.12 267.818 300.292 267.818 273.547C267.818 251.5 267.88 89.1927 286.703 89.1927C288.87 89.1927 292.323 92.5208 292.323 98.9896V199.193C292.292 213.604 292.792 224.62 302.318 224.62C311.849 224.62 311.083 204.964 311.083 198.818C311.083 197.177 315.406 101.531 315.505 100.021C316.042 92.1354 317.427 87.1354 322.714 87.1354C327.984 87.1302 330.182 92.1354 330.708 100.021C330.813 101.531 334.339 197.177 334.339 198.818C334.339 204.964 333.573 224.62 343.104 224.62C352.63 224.62 353.125 213.604 353.094 199.193V98.9896C353.094 92.5208 356.552 89.1927 358.719 89.1927ZM11.4479 190.036C19.9427 190.667 23.5573 191.312 26.3281 181.333C29.0937 171.359 28.875 153.094 19.7708 153.156C10.6771 153.229 -2.14584 160.24 1.04166 176.682C2.89582 186.214 2.95312 189.417 11.4479 190.036ZM27.875 273.823C34.8437 272.276 35.3958 251.302 34.5937 241.089C33.7917 230.87 33.0521 195.698 16.0364 203.12C-0.973969 210.536 0.416657 219.542 7.93228 234.411C12.2917 243.026 20.9062 275.375 27.875 273.823ZM440.828 284.078C434.281 281.224 427.057 286.755 421.693 295.49C416.323 304.208 396.193 333.068 414.312 337.099C432.438 341.12 443.677 329.042 446.365 312.604C447.917 303.068 447.37 286.927 440.828 284.078Z" fill="#F56D15"/>
<path d="M695.76 297.139C696.302 298.212 696.573 299.285 696.573 300.368C696.573 302.384 695.364 303.389 692.948 303.389H653.614C649.974 303.389 647.552 302.045 646.344 299.347L621.739 243.285C621.198 242.483 620.656 242.077 620.114 242.077C619.448 242.077 618.51 242.816 617.302 244.285L602.969 262.639C602.161 263.587 601.76 265.066 601.76 267.077V297.535C601.76 299.691 601.219 301.202 600.135 302.077C599.062 302.952 597.39 303.389 595.114 303.389H561.427C559.411 303.389 557.995 302.988 557.177 302.181C556.37 301.379 555.969 300.097 555.969 298.347V158.368C555.969 156.884 556.302 155.738 556.969 154.931C557.646 154.129 558.594 153.722 559.802 153.722H598.135C600.552 153.722 601.76 155.134 601.76 157.952V208.993C601.76 210.608 602.099 211.41 602.781 211.41C603.307 211.41 603.979 210.941 604.802 209.993L641.906 157.952C643.114 156.342 644.286 155.238 645.427 154.639C646.578 154.03 648.291 153.722 650.573 153.722H681.239C682.849 153.722 684.125 154.03 685.073 154.639C686.015 155.238 686.489 156.077 686.489 157.16C686.489 158.092 686.146 158.899 685.469 159.577L652.385 200.118C651.453 201.191 650.989 202.327 650.989 203.535C650.989 204.483 651.25 205.493 651.781 206.577L695.76 297.139Z" fill="#F56D15"/>
<path d="M851.474 297.139C852.015 298.212 852.286 299.285 852.286 300.368C852.286 302.384 851.078 303.389 848.661 303.389H809.328C805.687 303.389 803.265 302.045 802.057 299.347L777.453 243.285C776.911 242.483 776.369 242.077 775.828 242.077C775.161 242.077 774.224 242.816 773.015 244.285L758.682 262.639C757.875 263.587 757.474 265.066 757.474 267.077V297.535C757.474 299.691 756.932 301.202 755.849 302.077C754.776 302.952 753.104 303.389 750.828 303.389H717.14C715.125 303.389 713.708 302.988 712.89 302.181C712.083 301.379 711.682 300.097 711.682 298.347V158.368C711.682 156.884 712.015 155.738 712.682 154.931C713.359 154.129 714.307 153.722 715.515 153.722H753.849C756.265 153.722 757.474 155.134 757.474 157.952V208.993C757.474 210.608 757.812 211.41 758.494 211.41C759.02 211.41 759.692 210.941 760.515 209.993L797.619 157.952C798.828 156.342 800 155.238 801.14 154.639C802.291 154.03 804.005 153.722 806.286 153.722H836.953C838.562 153.722 839.838 154.03 840.786 154.639C841.729 155.238 842.203 156.077 842.203 157.16C842.203 158.092 841.859 158.899 841.182 159.577L808.099 200.118C807.166 201.191 806.703 202.327 806.703 203.535C806.703 204.483 806.963 205.493 807.494 206.577L851.474 297.139Z" fill="#F56D15"/>
<path d="M909.562 153.722C911.979 153.722 913.187 155.134 913.187 157.952V297.535C913.187 299.691 912.645 301.202 911.562 302.077C910.489 302.952 908.817 303.389 906.541 303.389H872.854C870.838 303.389 869.421 302.988 868.604 302.181C867.796 301.379 867.395 300.097 867.395 298.347V158.368C867.395 156.884 867.729 155.738 868.395 154.931C869.072 154.129 870.02 153.722 871.229 153.722H909.562Z" fill="#F56D15"/>
<path d="M1063.66 153.722C1065.68 153.722 1066.7 154.868 1066.7 157.16V299.764C1066.7 300.837 1066.26 301.712 1065.39 302.389C1064.51 303.056 1063.4 303.389 1062.05 303.389H1034.41C1033.2 303.389 1032.23 303.191 1031.49 302.785C1030.75 302.384 1029.91 301.577 1028.97 300.368L973.492 225.118C972.96 224.452 972.497 224.191 972.096 224.327C971.689 224.452 971.492 224.858 971.492 225.535V298.952C971.617 300.566 971.309 301.712 970.575 302.389C969.835 303.056 968.523 303.389 966.637 303.389H939.221C935.846 303.389 934.158 302.045 934.158 299.347V158.368C934.158 155.274 935.637 153.722 938.596 153.722H971.492C973.242 153.722 974.544 153.962 975.408 154.431C976.283 154.905 977.262 155.879 978.346 157.347L1026.76 224.722C1027.56 225.931 1028.3 226.535 1028.97 226.535C1029.64 226.535 1029.97 225.66 1029.97 223.91V157.952C1029.97 155.134 1031.45 153.722 1034.41 153.722H1063.66Z" fill="#F56D15"/>
<path d="M1129.82 153.722C1132.24 153.722 1133.44 155.134 1133.44 157.952V297.535C1133.44 299.691 1132.9 301.202 1131.82 302.077C1130.75 302.952 1129.08 303.389 1126.8 303.389H1093.11C1091.1 303.389 1089.68 302.988 1088.86 302.181C1088.05 301.379 1087.65 300.097 1087.65 298.347V158.368C1087.65 156.884 1087.99 155.738 1088.65 154.931C1089.33 154.129 1090.28 153.722 1091.49 153.722H1129.82Z" fill="#F56D15"/>
</svg>