<svg width="448" height="406" viewBox="0 0 448 406" fill="none" xmlns="http://www.w3.org/2000/svg">
<path fill-rule="evenodd" clip-rule="evenodd" d="M358.719 89.1927C377.542 89.1927 377.604 251.5 377.604 273.547C377.604 300.292 336.974 300.12 336.974 331.375C336.974 339.005 336.958 346.354 336.948 353.51C338.344 374.437 358.432 386.995 372.828 375.318C387.224 363.635 386.182 350.922 389.047 333.891C395.354 296.344 431.797 255.375 435.526 201.802C439.719 141.677 430.802 84.6145 396.229 48.5677C351.479 1.90621 312.859 26.1927 240.542 6.81247C136.531 -21.0573 16.2396 44.1354 45.5573 201.802C57.8021 267.62 37.8229 328.531 87.3646 361.802C135.224 393.932 149.385 349.74 149.542 340.771L149.932 317.911C149.932 311.604 147.271 308.38 131.292 296.214C73.3802 252.104 102.375 87.1354 164.495 87.1354C226.609 87.1302 255.604 252.104 197.693 296.214C181.708 308.38 179.052 311.604 179.052 317.917C179.177 325.411 179.182 325.5 179.432 340.406C179.688 355.312 184.089 387.943 208.99 391.349C211.068 391.635 219.724 393.281 221.844 393.484C229.734 393.484 233.406 394.875 240.542 396.781C252.271 399.922 259.865 397.573 274.24 403.849C288.62 410.12 308.531 391.052 308.526 374.01C308.51 356.974 308.448 346.458 308.448 331.375C308.448 300.12 267.818 300.292 267.818 273.547C267.818 251.5 267.88 89.1927 286.703 89.1927C288.87 89.1927 292.323 92.5208 292.323 98.9896V199.193C292.292 213.604 292.792 224.62 302.318 224.62C311.849 224.62 311.083 204.964 311.083 198.818C311.083 197.177 315.406 101.531 315.505 100.021C316.042 92.1354 317.427 87.1354 322.714 87.1354C327.984 87.1302 330.182 92.1354 330.708 100.021C330.812 101.531 334.339 197.177 334.339 198.818C334.339 204.964 333.573 224.62 343.104 224.62C352.63 224.62 353.125 213.604 353.094 199.193V98.9896C353.094 92.5208 356.552 89.1927 358.719 89.1927ZM11.4479 190.036C19.9427 190.667 23.5573 191.312 26.3281 181.333C29.0937 171.359 28.875 153.094 19.7708 153.156C10.6771 153.229 -2.14584 160.24 1.04166 176.682C2.89582 186.214 2.95312 189.417 11.4479 190.036ZM27.875 273.823C34.8437 272.276 35.3958 251.302 34.5937 241.089C33.7917 230.87 33.0521 195.698 16.0364 203.12C-0.973969 210.536 0.416657 219.542 7.93228 234.411C12.2917 243.026 20.9062 275.375 27.875 273.823ZM440.828 284.078C434.281 281.224 427.057 286.755 421.693 295.49C416.323 304.208 396.193 333.068 414.312 337.099C432.438 341.12 443.677 329.042 446.365 312.604C447.917 303.068 447.37 286.927 440.828 284.078Z" fill="#F56D15"/>
</svg>
