<svg xmlns="http://www.w3.org/2000/svg" xmlns:xlink="http://www.w3.org/1999/xlink" width="1920" zoomAndPan="magnify" viewBox="0 0 1440 809.999993" height="1080" preserveAspectRatio="xMidYMid meet" version="1.0"><defs><g/></defs><path fill="#f56d15" d="M 571.289062 291.144531 C 585.40625 291.144531 585.453125 412.875 585.453125 429.410156 C 585.453125 449.46875 554.980469 449.339844 554.980469 472.78125 C 554.980469 478.503906 554.96875 484.015625 554.960938 489.382812 C 556.007812 505.078125 571.074219 514.496094 581.871094 505.738281 C 592.667969 496.976562 591.886719 487.441406 594.035156 474.667969 C 598.765625 446.507812 626.097656 415.78125 628.894531 375.601562 C 632.039062 330.507812 625.351562 287.710938 599.421875 260.675781 C 565.859375 225.679688 536.894531 243.894531 482.65625 229.359375 C 404.648438 208.457031 314.429688 257.351562 336.417969 375.601562 C 345.601562 424.964844 330.617188 470.648438 367.773438 495.601562 C 403.667969 519.699219 414.289062 486.554688 414.40625 479.828125 L 414.699219 462.683594 C 414.699219 457.953125 412.703125 455.535156 400.71875 446.410156 C 357.285156 413.328125 379.03125 289.601562 425.621094 289.601562 C 472.207031 289.597656 493.953125 413.328125 450.519531 446.410156 C 438.53125 455.535156 436.539062 457.953125 436.539062 462.6875 C 436.632812 468.308594 436.636719 468.375 436.824219 479.554688 C 437.015625 490.734375 440.316406 515.207031 458.992188 517.761719 C 460.550781 517.976562 467.042969 519.210938 468.632812 519.363281 C 474.550781 519.363281 477.304688 520.40625 482.65625 521.835938 C 491.453125 524.191406 497.148438 522.429688 507.929688 527.136719 C 518.714844 531.839844 533.648438 517.539062 533.644531 504.757812 C 533.632812 491.980469 533.585938 484.09375 533.585938 472.78125 C 533.585938 449.339844 503.113281 449.46875 503.113281 429.410156 C 503.113281 412.875 503.160156 291.144531 517.277344 291.144531 C 518.902344 291.144531 521.492188 293.640625 521.492188 298.492188 L 521.492188 373.644531 C 521.46875 384.453125 521.84375 392.714844 528.988281 392.714844 C 536.136719 392.714844 535.5625 377.972656 535.5625 373.363281 C 535.5625 372.132812 538.804688 300.398438 538.878906 299.265625 C 539.28125 293.351562 540.320312 289.601562 544.285156 289.601562 C 548.238281 289.597656 549.886719 293.351562 550.28125 299.265625 C 550.359375 300.398438 553.003906 372.132812 553.003906 373.363281 C 553.003906 377.972656 552.429688 392.714844 559.578125 392.714844 C 566.722656 392.714844 567.09375 384.453125 567.070312 373.644531 L 567.070312 298.492188 C 567.070312 293.640625 569.664062 291.144531 571.289062 291.144531 Z M 310.835938 366.777344 C 317.207031 367.25 319.917969 367.734375 321.996094 360.25 C 324.070312 352.769531 323.90625 339.070312 317.078125 339.117188 C 310.257812 339.171875 300.640625 344.429688 303.03125 356.761719 C 304.421875 363.910156 304.464844 366.3125 310.835938 366.777344 Z M 323.15625 429.617188 C 328.382812 428.457031 328.796875 412.726562 328.195312 405.066406 C 327.59375 397.402344 327.039062 371.023438 314.277344 376.589844 C 301.519531 382.152344 302.5625 388.90625 308.199219 400.058594 C 311.46875 406.519531 317.929688 430.78125 323.15625 429.617188 Z M 632.871094 437.308594 C 627.960938 435.167969 622.542969 439.316406 618.519531 445.867188 C 614.492188 452.40625 599.394531 474.050781 612.984375 477.074219 C 626.578125 480.089844 635.007812 471.03125 637.023438 458.703125 C 638.1875 451.550781 637.777344 439.445312 632.871094 437.308594 " fill-opacity="1" fill-rule="evenodd"/><g fill="#f56d15" fill-opacity="1"><g transform="translate(711.366984, 451.791837)"><g><path d="M 112.703125 -4.6875 C 113.109375 -3.882812 113.3125 -3.078125 113.3125 -2.265625 C 113.3125 -0.753906 112.40625 0 110.59375 0 L 81.09375 0 C 78.363281 0 76.546875 -1.007812 75.640625 -3.03125 L 57.1875 -45.078125 C 56.78125 -45.679688 56.375 -45.984375 55.96875 -45.984375 C 55.46875 -45.984375 54.765625 -45.429688 53.859375 -44.328125 L 43.109375 -30.5625 C 42.503906 -29.851562 42.203125 -28.742188 42.203125 -27.234375 L 42.203125 -4.390625 C 42.203125 -2.773438 41.796875 -1.640625 40.984375 -0.984375 C 40.179688 -0.328125 38.925781 0 37.21875 0 L 11.953125 0 C 10.441406 0 9.378906 -0.300781 8.765625 -0.90625 C 8.160156 -1.507812 7.859375 -2.46875 7.859375 -3.78125 L 7.859375 -108.765625 C 7.859375 -109.878906 8.109375 -110.738281 8.609375 -111.34375 C 9.117188 -111.945312 9.828125 -112.25 10.734375 -112.25 L 39.484375 -112.25 C 41.296875 -112.25 42.203125 -111.191406 42.203125 -109.078125 L 42.203125 -70.796875 C 42.203125 -69.585938 42.457031 -68.984375 42.96875 -68.984375 C 43.363281 -68.984375 43.867188 -69.335938 44.484375 -70.046875 L 72.3125 -109.078125 C 73.21875 -110.285156 74.097656 -111.113281 74.953125 -111.5625 C 75.816406 -112.019531 77.101562 -112.25 78.8125 -112.25 L 101.8125 -112.25 C 103.019531 -112.25 103.976562 -112.019531 104.6875 -111.5625 C 105.394531 -111.113281 105.75 -110.484375 105.75 -109.671875 C 105.75 -108.972656 105.492188 -108.367188 104.984375 -107.859375 L 80.171875 -77.453125 C 79.472656 -76.648438 79.125 -75.796875 79.125 -74.890625 C 79.125 -74.179688 79.320312 -73.421875 79.71875 -72.609375 Z M 112.703125 -4.6875 "/></g></g></g><g fill="#f56d15" fill-opacity="1"><g transform="translate(828.152029, 451.791837)"><g><path d="M 112.703125 -4.6875 C 113.109375 -3.882812 113.3125 -3.078125 113.3125 -2.265625 C 113.3125 -0.753906 112.40625 0 110.59375 0 L 81.09375 0 C 78.363281 0 76.546875 -1.007812 75.640625 -3.03125 L 57.1875 -45.078125 C 56.78125 -45.679688 56.375 -45.984375 55.96875 -45.984375 C 55.46875 -45.984375 54.765625 -45.429688 53.859375 -44.328125 L 43.109375 -30.5625 C 42.503906 -29.851562 42.203125 -28.742188 42.203125 -27.234375 L 42.203125 -4.390625 C 42.203125 -2.773438 41.796875 -1.640625 40.984375 -0.984375 C 40.179688 -0.328125 38.925781 0 37.21875 0 L 11.953125 0 C 10.441406 0 9.378906 -0.300781 8.765625 -0.90625 C 8.160156 -1.507812 7.859375 -2.46875 7.859375 -3.78125 L 7.859375 -108.765625 C 7.859375 -109.878906 8.109375 -110.738281 8.609375 -111.34375 C 9.117188 -111.945312 9.828125 -112.25 10.734375 -112.25 L 39.484375 -112.25 C 41.296875 -112.25 42.203125 -111.191406 42.203125 -109.078125 L 42.203125 -70.796875 C 42.203125 -69.585938 42.457031 -68.984375 42.96875 -68.984375 C 43.363281 -68.984375 43.867188 -69.335938 44.484375 -70.046875 L 72.3125 -109.078125 C 73.21875 -110.285156 74.097656 -111.113281 74.953125 -111.5625 C 75.816406 -112.019531 77.101562 -112.25 78.8125 -112.25 L 101.8125 -112.25 C 103.019531 -112.25 103.976562 -112.019531 104.6875 -111.5625 C 105.394531 -111.113281 105.75 -110.484375 105.75 -109.671875 C 105.75 -108.972656 105.492188 -108.367188 104.984375 -107.859375 L 80.171875 -77.453125 C 79.472656 -76.648438 79.125 -75.796875 79.125 -74.890625 C 79.125 -74.179688 79.320312 -73.421875 79.71875 -72.609375 Z M 112.703125 -4.6875 "/></g></g></g><g fill="#f56d15" fill-opacity="1"><g transform="translate(944.937075, 451.791837)"><g><path d="M 39.484375 -112.25 C 41.296875 -112.25 42.203125 -111.191406 42.203125 -109.078125 L 42.203125 -4.390625 C 42.203125 -2.773438 41.796875 -1.640625 40.984375 -0.984375 C 40.179688 -0.328125 38.925781 0 37.21875 0 L 11.953125 0 C 10.441406 0 9.378906 -0.300781 8.765625 -0.90625 C 8.160156 -1.507812 7.859375 -2.46875 7.859375 -3.78125 L 7.859375 -108.765625 C 7.859375 -109.878906 8.109375 -110.738281 8.609375 -111.34375 C 9.117188 -111.945312 9.828125 -112.25 10.734375 -112.25 Z M 39.484375 -112.25 "/></g></g></g><g fill="#f56d15" fill-opacity="1"><g transform="translate(995.009412, 451.791837)"><g><path d="M 104.984375 -112.25 C 106.503906 -112.25 107.265625 -111.390625 107.265625 -109.671875 L 107.265625 -2.71875 C 107.265625 -1.914062 106.9375 -1.257812 106.28125 -0.75 C 105.625 -0.25 104.789062 0 103.78125 0 L 83.046875 0 C 82.140625 0 81.410156 -0.148438 80.859375 -0.453125 C 80.304688 -0.753906 79.675781 -1.359375 78.96875 -2.265625 L 37.359375 -58.703125 C 36.960938 -59.203125 36.613281 -59.398438 36.3125 -59.296875 C 36.007812 -59.203125 35.859375 -58.898438 35.859375 -58.390625 L 35.859375 -3.328125 C 35.953125 -2.117188 35.722656 -1.257812 35.171875 -0.75 C 34.617188 -0.25 33.632812 0 32.21875 0 L 11.65625 0 C 9.125 0 7.859375 -1.007812 7.859375 -3.03125 L 7.859375 -108.765625 C 7.859375 -111.085938 8.96875 -112.25 11.1875 -112.25 L 35.859375 -112.25 C 37.171875 -112.25 38.148438 -112.070312 38.796875 -111.71875 C 39.453125 -111.363281 40.1875 -110.632812 41 -109.53125 L 77.3125 -59 C 77.914062 -58.09375 78.46875 -57.640625 78.96875 -57.640625 C 79.46875 -57.640625 79.71875 -58.296875 79.71875 -59.609375 L 79.71875 -109.078125 C 79.71875 -111.191406 80.828125 -112.25 83.046875 -112.25 Z M 104.984375 -112.25 "/></g></g></g><g fill="#f56d15" fill-opacity="1"><g transform="translate(1110.130434, 451.791837)"><g><path d="M 39.484375 -112.25 C 41.296875 -112.25 42.203125 -111.191406 42.203125 -109.078125 L 42.203125 -4.390625 C 42.203125 -2.773438 41.796875 -1.640625 40.984375 -0.984375 C 40.179688 -0.328125 38.925781 0 37.21875 0 L 11.953125 0 C 10.441406 0 9.378906 -0.300781 8.765625 -0.90625 C 8.160156 -1.507812 7.859375 -2.46875 7.859375 -3.78125 L 7.859375 -108.765625 C 7.859375 -109.878906 8.109375 -110.738281 8.609375 -111.34375 C 9.117188 -111.945312 9.828125 -112.25 10.734375 -112.25 Z M 39.484375 -112.25 "/></g></g></g></svg>